<svg width="27" height="27" viewBox="0 0 27 27" fill="none" xmlns="http://www.w3.org/2000/svg">
<path d="M25.5 5.83226C25.5 6.94967 25.0559 8.0229 24.2627 8.81675C22.4369 10.6449 20.6662 12.551 18.7722 14.3128C18.3382 14.7108 17.6495 14.6963 17.234 14.2803L11.7775 8.81675C10.1282 7.16532 10.1282 4.49921 11.7775 2.84778C13.443 1.18012 16.1563 1.18012 17.8217 2.84778L18.0201 3.04636L18.2183 2.84789C19.017 2.04789 20.1045 1.59668 21.2405 1.59668C22.3767 1.59668 23.4642 2.04786 24.2627 2.84778C25.0559 3.64174 25.5 4.71491 25.5 5.83226Z" stroke="white" stroke-width="2" stroke-linejoin="round"/>
<path d="M25.5 5.83226C25.5 6.94967 25.0559 8.0229 24.2627 8.81675C22.4369 10.6449 20.6662 12.551 18.7722 14.3128C18.3382 14.7108 17.6495 14.6963 17.234 14.2803L11.7775 8.81675C10.1282 7.16532 10.1282 4.49921 11.7775 2.84778C13.443 1.18012 16.1563 1.18012 17.8217 2.84778L18.0201 3.04636L18.2183 2.84789C19.017 2.04789 20.1045 1.59668 21.2405 1.59668C22.3767 1.59668 23.4642 2.04786 24.2627 2.84778C25.0559 3.64174 25.5 4.71491 25.5 5.83226Z" stroke="white" stroke-width="2" stroke-linejoin="round"/>
<path d="M1.50001 18.165L8.65122 25.2703C8.86159 25.4793 9.14694 25.5967 9.44444 25.5967L19.2644 25.5967C20.8135 25.5967 22.0693 24.3489 22.0693 22.8098C22.0693 21.2707 20.8135 20.023 19.2644 20.023L10.8497 20.023" stroke="white" stroke-width="2" stroke-linecap="round" stroke-linejoin="round"/>
<path d="M1.50001 18.165L8.65122 25.2703C8.86159 25.4793 9.14694 25.5967 9.44444 25.5967L19.2644 25.5967C20.8135 25.5967 22.0693 24.3489 22.0693 22.8098C22.0693 21.2707 20.8135 20.023 19.2644 20.023L10.8497 20.023" stroke="white" stroke-width="2" stroke-linecap="round" stroke-linejoin="round"/>
<path d="M8.97999 18.1648L10.5846 19.7591C10.7546 19.928 10.9849 20.0227 11.225 20.0227C11.5682 20.0227 11.8818 19.8301 12.0353 19.5252L12.4493 18.7023C13.1692 17.2719 12.887 15.544 11.7488 14.4131L10.0754 12.7505C9.37398 12.0536 8.42274 11.6621 7.43093 11.6621L1.50023 11.6621" stroke="white" stroke-width="2" stroke-linecap="round" stroke-linejoin="round"/>
<path d="M8.97999 18.1648L10.5846 19.7591C10.7546 19.928 10.9849 20.0227 11.225 20.0227C11.5682 20.0227 11.8818 19.8301 12.0353 19.5252L12.4493 18.7023C13.1692 17.2719 12.887 15.544 11.7488 14.4131L10.0754 12.7505C9.37398 12.0536 8.42274 11.6621 7.43093 11.6621L1.50023 11.6621" stroke="white" stroke-width="2" stroke-linecap="round" stroke-linejoin="round"/>
</svg>
