<svg width="20" height="18" viewBox="0 0 20 18" fill="none" xmlns="http://www.w3.org/2000/svg">
<path d="M17.3664 2.34319C16.9407 1.91736 16.4354 1.57956 15.8792 1.34909C15.3229 1.11862 14.7268 1 14.1247 1C13.5226 1 12.9264 1.11862 12.3702 1.34909C11.814 1.57956 11.3087 1.91736 10.883 2.34319L9.99969 3.22652L9.11636 2.34319C8.25662 1.48344 7.09055 1.00045 5.87469 1.00045C4.65883 1.00045 3.49277 1.48344 2.63303 2.34319C1.77328 3.20293 1.29028 4.36899 1.29028 5.58485C1.29028 6.80071 1.77328 7.96678 2.63303 8.82652L9.99969 16.1932L17.3664 8.82652C17.7922 8.40089 18.13 7.89553 18.3605 7.33932C18.5909 6.7831 18.7095 6.18693 18.7095 5.58485C18.7095 4.98278 18.5909 4.38661 18.3605 3.83039C18.13 3.27418 17.7922 2.76882 17.3664 2.34319Z" stroke="white" stroke-width="2" stroke-linecap="round" stroke-linejoin="round"/>
</svg>
