<svg width="20" height="21" viewBox="0 0 20 21" fill="none" xmlns="http://www.w3.org/2000/svg">
<path d="M15 7.26367C16.3807 7.26367 17.5 6.14438 17.5 4.76367C17.5 3.38296 16.3807 2.26367 15 2.26367C13.6193 2.26367 12.5 3.38296 12.5 4.76367C12.5 6.14438 13.6193 7.26367 15 7.26367Z" stroke="white" stroke-width="2" stroke-linecap="round" stroke-linejoin="round"/>
<path d="M5 13.0967C6.38071 13.0967 7.5 11.9774 7.5 10.5967C7.5 9.21597 6.38071 8.09668 5 8.09668C3.61929 8.09668 2.5 9.21597 2.5 10.5967C2.5 11.9774 3.61929 13.0967 5 13.0967Z" stroke="white" stroke-width="2" stroke-linecap="round" stroke-linejoin="round"/>
<path d="M15 18.9297C16.3807 18.9297 17.5 17.8104 17.5 16.4297C17.5 15.049 16.3807 13.9297 15 13.9297C13.6193 13.9297 12.5 15.049 12.5 16.4297C12.5 17.8104 13.6193 18.9297 15 18.9297Z" stroke="white" stroke-width="2" stroke-linecap="round" stroke-linejoin="round"/>
<path d="M7.15845 11.8555L12.8501 15.1721" stroke="white" stroke-width="2" stroke-linecap="round" stroke-linejoin="round"/>
<path d="M12.8418 6.02148L7.15845 9.33815" stroke="white" stroke-width="2" stroke-linecap="round" stroke-linejoin="round"/>
</svg>
