<?xml version="1.0" encoding="UTF-8"?>
<svg id="Layer_2" data-name="Layer 2" xmlns="http://www.w3.org/2000/svg" viewBox="0 0 200 125">
  <defs>
    <style>
      .cls-1 {
        fill: #fff;
      }
    </style>
  </defs>
  <g id="_레이어_1" data-name="레이어 1">
    <g>
      <path class="cls-1" d="m41.53,124.5c-2.69,0-5.38-.98-7.48-2.95-4.34-4.07-4.51-10.83-.38-15.11.65-.67,1.31-1.32,1.98-1.95H10.85c-5.99,0-10.85-4.79-10.85-10.69s4.86-10.69,10.85-10.69h76.91c5.83,0,10.62,4.54,10.84,10.29.22,5.74-4.21,10.63-10.03,11.06-.22.02-25.1,2.15-39.18,16.72-2.13,2.2-4.99,3.32-7.86,3.32Z"/>
      <path class="cls-1" d="m189.14,125c-5.45,0-10.15-4.04-10.77-9.5l-.53-4.67c-3.81-33.67-3.63-67.79.54-101.42.73-5.86,6.13-10.05,12.08-9.31,5.95.72,10.18,6.04,9.45,11.9-3.97,31.98-4.14,64.44-.52,96.46l.53,4.67c.66,5.86-3.62,11.15-9.58,11.81-.41.05-.81.07-1.22.07Z"/>
      <path class="cls-1" d="m46.74,75.53c-5.99,0-10.85-4.79-10.85-10.69s4.86-10.69,10.85-10.69c11.9,0,20.37-2.63,25.19-7.82,5.46-5.88,4.8-13.89,4.8-13.97-.92-9.32-10.25-10.72-10.64-10.77-.09-.01-.18-.03-.27-.04-16.19-2.68-33.3,28.82-39.05,44.48-1.99,5.43-8,8.32-13.57,6.53-5.57-1.79-8.69-7.61-7.05-13.15l1.62-5.45c3.82-12.86,2.85-26.67-2.71-38.89-2.45-5.39,0-11.71,5.46-14.12,5.46-2.42,11.88,0,14.34,5.38,1.83,4.02,3.3,8.17,4.4,12.39C39.46,6.93,52.9-2.18,69.25.46c9.25,1.34,27.02,9.24,29.05,29.78.18,1.55,1.65,17.25-10.03,30.16-9.08,10.04-23.06,15.13-41.54,15.13Z"/>
      <path class="cls-1" d="m147.65,105.6c-7.79,0-17.77-1.59-26.19-8.04-9.72-7.45-14.64-19.12-14.64-34.7,0-16.8,7.51-29.79,16.64-39.38-1.7-.38-3.42-.84-5.14-1.38-5.71-1.79-8.86-7.81-7.04-13.43,1.82-5.62,7.93-8.72,13.63-6.93,15.27,4.8,31.22.04,31.38-.01,5.59-1.71,11.57,1.25,13.48,6.7,1.92,5.45-.88,11.4-6.34,13.47-.32.12-34.92,13.75-34.92,40.97,0,8.61,2.09,14.59,6.21,17.79,6.18,4.8,16.86,3.64,20.45,2.79,5.8-1.38,11.67,2.11,13.1,7.82,1.43,5.71-2.05,11.47-7.84,12.92-1.08.27-6.13,1.43-12.8,1.43Z"/>
    </g>
  </g>
</svg>