<svg width="130" height="108" viewBox="0 0 130 108" fill="none" xmlns="http://www.w3.org/2000/svg">
<g clip-path="url(#clip0_564_1119)">
<path d="M53.5409 106.548C82.816 106.548 106.548 82.816 106.548 53.5409C106.548 24.2658 82.816 0.533691 53.5409 0.533691C24.2658 0.533691 0.533691 24.2658 0.533691 53.5409C0.533691 82.816 24.2658 106.548 53.5409 106.548Z" stroke="white" stroke-width="2" stroke-linecap="round" stroke-linejoin="round"/>
<path d="M83.1654 68.8786C91.6362 68.8786 98.5031 62.0117 98.5031 53.5409C98.5031 45.0701 91.6362 38.2031 83.1654 38.2031C74.6946 38.2031 67.8276 45.0701 67.8276 53.5409C67.8276 62.0117 74.6946 68.8786 83.1654 68.8786Z" stroke="white" stroke-width="2" stroke-linecap="round" stroke-linejoin="round"/>
<path d="M62.6952 40.7053C71.166 40.7053 78.0329 33.8383 78.0329 25.3675C78.0329 16.8967 71.166 10.0298 62.6952 10.0298C54.2244 10.0298 47.3574 16.8967 47.3574 25.3675C47.3574 33.8383 54.2244 40.7053 62.6952 40.7053Z" stroke="white" stroke-width="2" stroke-linecap="round" stroke-linejoin="round"/>
<path d="M29.5765 51.4709C38.0473 51.4709 44.9142 44.6039 44.9142 36.1332C44.9142 27.6624 38.0473 20.7954 29.5765 20.7954C21.1057 20.7954 14.2388 27.6624 14.2388 36.1332C14.2388 44.6039 21.1057 51.4709 29.5765 51.4709Z" stroke="white" stroke-width="2" stroke-linecap="round" stroke-linejoin="round"/>
<path d="M29.5765 86.2917C38.0473 86.2917 44.9142 79.4247 44.9142 70.9539C44.9142 62.4831 38.0473 55.6162 29.5765 55.6162C21.1057 55.6162 14.2388 62.4831 14.2388 70.9539C14.2388 79.4247 21.1057 86.2917 29.5765 86.2917Z" stroke="white" stroke-width="2" stroke-linecap="round" stroke-linejoin="round"/>
<path d="M62.6952 97.0573C71.166 97.0573 78.0329 90.1904 78.0329 81.7196C78.0329 73.2488 71.166 66.3818 62.6952 66.3818C54.2244 66.3818 47.3574 73.2488 47.3574 81.7196C47.3574 90.1904 54.2244 97.0573 62.6952 97.0573Z" stroke="white" stroke-width="2" stroke-linecap="round" stroke-linejoin="round"/>
<path d="M53.5405 83.165C69.9017 83.165 83.165 69.9017 83.165 53.5405C83.165 37.1794 69.9017 23.916 53.5405 23.916C37.1794 23.916 23.916 37.1794 23.916 53.5405C23.916 69.9017 37.1794 83.165 53.5405 83.165Z" stroke="white" stroke-width="2" stroke-linecap="round" stroke-linejoin="round"/>
<path d="M52.9914 60.3745C56.6656 60.3745 59.644 57.396 59.644 53.7219C59.644 50.0478 56.6656 47.0693 52.9914 47.0693C49.3173 47.0693 46.3389 50.0478 46.3389 53.7219C46.3389 57.396 49.3173 60.3745 52.9914 60.3745Z" stroke="white" stroke-width="2" stroke-linecap="round" stroke-linejoin="round"/>
<path d="M106.095 60.4922C110.704 72.4263 118.343 87.4546 129.467 95.0888L123.166 106.553C123.166 106.553 109.882 91.8399 103.625 70.9379" stroke="white" stroke-width="2" stroke-linecap="round" stroke-linejoin="round"/>
</g>
<defs>
<clipPath id="clip0_564_1119">
<rect width="130" height="107.087" fill="white"/>
</clipPath>
</defs>
</svg>
